<svg width="20" height="20" viewBox="0 0 20 20" fill="none" xmlns="http://www.w3.org/2000/svg">
<path d="M20 10C20 15.5228 15.5228 20 10 20C4.47715 20 0 15.5228 0 10C0 4.47715 4.47715 0 10 0C15.5228 0 20 4.47715 20 10Z" fill="white"/>
<path d="M10 0C8.02219 0 6.08879 0.586489 4.4443 1.6853C2.79981 2.78412 1.51809 4.3459 0.761209 6.17316C0.00433278 8.00042 -0.1937 10.0111 0.192152 11.9509C0.578004 13.8907 1.53041 15.6725 2.92894 17.0711C4.32746 18.4696 6.10929 19.422 8.0491 19.8078C9.98891 20.1937 11.9996 19.9957 13.8268 19.2388C15.6541 18.4819 17.2159 17.2002 18.3147 15.5557C19.4135 13.9112 20 11.9778 20 10C19.9949 7.3494 18.9397 4.80881 17.0655 2.93454C15.1912 1.06028 12.6506 0.00508266 10 0Z" fill="#DB3231"/>
<path d="M13.6249 12.5288C13.7693 12.6747 13.8504 12.8717 13.8504 13.0769C13.8504 13.2822 13.7693 13.4792 13.6249 13.625C13.4779 13.7672 13.2813 13.8466 13.0768 13.8466C12.8723 13.8466 12.6758 13.7672 12.5287 13.625L9.99989 11.0865L7.47105 13.625C7.32402 13.7672 7.1275 13.8466 6.92297 13.8466C6.71845 13.8466 6.52193 13.7672 6.3749 13.625C6.23045 13.4792 6.14941 13.2822 6.14941 13.0769C6.14941 12.8717 6.23045 12.6747 6.3749 12.5288L8.91336 10L6.3749 7.47115C6.25223 7.32169 6.18955 7.13195 6.19903 6.93884C6.20852 6.74572 6.28949 6.56303 6.42621 6.42632C6.56293 6.2896 6.74562 6.20862 6.93873 6.19913C7.13185 6.18965 7.32159 6.25234 7.47105 6.375L9.99989 8.91346L12.5287 6.375C12.6782 6.25234 12.8679 6.18965 13.0611 6.19913C13.2542 6.20862 13.4369 6.2896 13.5736 6.42632C13.7103 6.56303 13.7913 6.74572 13.8008 6.93884C13.8102 7.13195 13.7476 7.32169 13.6249 7.47115L11.0864 10L13.6249 12.5288Z" fill="white"/>
</svg>
