<svg width="20" height="20" viewBox="0 0 20 20" fill="none" xmlns="http://www.w3.org/2000/svg">
<path d="M20 10C20 15.5228 15.5228 20 10 20C4.47715 20 1.24605e-09 15.5228 1.24605e-09 10C1.24605e-09 4.47715 4.47715 0 10 0C15.5228 0 20 4.47715 20 10Z" fill="white"/>
<path d="M10 0C8.02219 0 6.08879 0.586489 4.4443 1.6853C2.79981 2.78412 1.51809 4.3459 0.761209 6.17316C0.00433284 8.00042 -0.1937 10.0111 0.192152 11.9509C0.578004 13.8907 1.53041 15.6725 2.92894 17.0711C4.32746 18.4696 6.10929 19.422 8.0491 19.8078C9.98891 20.1937 11.9996 19.9957 13.8268 19.2388C15.6541 18.4819 17.2159 17.2002 18.3147 15.5557C19.4135 13.9112 20 11.9778 20 10C19.9949 7.3494 18.9397 4.80881 17.0655 2.93455C15.1912 1.06028 12.6506 0.00508266 10 0Z" fill="#59CB3F"/>
<path d="M14.7598 8.25005L9.12519 13.6347C8.97952 13.7717 8.78672 13.8474 8.58673 13.8462C8.48898 13.8476 8.39192 13.8296 8.30115 13.7933C8.21038 13.757 8.1277 13.7031 8.05788 13.6347L5.24058 10.9424C5.16243 10.8742 5.09888 10.7909 5.05375 10.6975C5.00861 10.6042 4.98281 10.5027 4.97791 10.3991C4.97301 10.2955 4.9891 10.192 5.02523 10.0948C5.06135 9.99757 5.11675 9.90867 5.18811 9.83342C5.25946 9.75817 5.3453 9.69813 5.44045 9.6569C5.53561 9.61567 5.63811 9.5941 5.74181 9.5935C5.84551 9.5929 5.94827 9.61327 6.04389 9.65339C6.13952 9.69351 6.22604 9.75256 6.29827 9.82697L8.58673 12.0097L13.7021 7.13466C13.8517 7.00417 14.0459 6.93655 14.2442 6.94593C14.4424 6.95531 14.6294 7.04097 14.766 7.185C14.9026 7.32903 14.9782 7.52028 14.977 7.71877C14.9759 7.91725 14.898 8.10761 14.7598 8.25005Z" fill="white"/>
</svg>
